# xmcd CD database file
#
# Track frame offsets:
#	182
#	18127
#	42962
#	61937
#	79720
#	91242
#	109457
#	133102
#	153625
#	166195
#
# Disc length: 2452 seconds
#
# Revision: 0
# Processed by: cddbd v1.4PL0 Copyright (c) Steve Scherf et al.
# Submitted via: CDex 1.50Beta7
#
DISCID=7709920a
DTITLE=Various Artist - Yoga Energy
DYEAR=1990
DGENRE=New Age
TTITLE0=Sean Harkness/Summer Solstice
TTITLE1=Ray Obiedo/Cha La Island
TTITLE2=Suzanne Ciani/Hotel Luna
TTITLE3=Scott Cossu/Priest Point Journey
TTITLE4=Jim Brickman/Circles
TTITLE5=Shadowfax/Angel's Flight
TTITLE6=Michael Manring and Paul McCandless/In Our Jasmine Days
TTITLE7=Scott Cossu/Sanctuary
TTITLE8=Alex de Grassi/Luther's Lullaby
TTITLE9=Michael Hedges/The Jade Stalk
EXTD=YEAR: 1990
EXTT0=
EXTT1=
EXTT2=
EXTT3=
EXTT4=
EXTT5=
EXTT6=
EXTT7=
EXTT8=
EXTT9=
PLAYORDER=
